<?xml version="1.0" encoding="UTF-8" standalone="no"?>
<svg
   version="1.1"
   id="Layer_1"
   x="0px"
   y="0px"
   width="559.32111"
   viewBox="0 0 559.32111 609.75061"
   enable-background="new 0 0 1024 1024"
   xml:space="preserve"
   sodipodi:docname="_aecab1f6-9059-4bca-8604-962b0d8b5cca (1).svg"
   height="609.75061"
   xmlns:inkscape="http://www.inkscape.org/namespaces/inkscape"
   xmlns:sodipodi="http://sodipodi.sourceforge.net/DTD/sodipodi-0.dtd"
   xmlns="http://www.w3.org/2000/svg"
   xmlns:svg="http://www.w3.org/2000/svg"><defs
   id="defs19" /><sodipodi:namedview
   id="namedview19"
   pagecolor="#ffffff"
   bordercolor="#000000"
   borderopacity="0.25"
   inkscape:showpageshadow="2"
   inkscape:pageopacity="0.0"
   inkscape:pagecheckerboard="0"
   inkscape:deskcolor="#d1d1d1" />
<path
   fill="#000000"
   opacity="1"
   stroke="none"
   d="M 194.87185,375.13922 C 185.15398,373.58618 175.73549,372.52939 166.4146,370.9108 122.49154,363.28323 79.87755,351.81442 41.98321,327.09143 22.98755,314.69824 8.6126298,298.57007 2.3633298,276.21365 -0.93313019,264.42078 -0.31098019,252.49689 1.3878798,240.5379 9.4597398,183.71686 36.51912,136.48086 74.39522,94.487176 c 37.90772,-42.02867 84.40094,-69.81177 138.62363,-85.0954299 30.30191,-8.54118004 61.21719,-11.46975 92.46463,-7.90567 66.6264,7.59944 123.62915,35.2851899 170.65088,83.2871699 27.92865,28.510934 50.34112,60.734444 66.02942,97.511174 9.68194,22.69638 15.91137,46.37888 17.06451,70.99091 1.28668,27.46435 -10.87952,49.3052 -31.79815,66.34149 -23.53968,19.17087 -51.06898,30.38199 -79.88148,38.8898 -26.2611,7.75452 -52.99926,12.96506 -80.26483,15.41782 -3.36352,0.30261 -4.68908,1.77633 -4.68316,5.05838 0.0418,23.16644 0.0463,46.33313 -0.019,69.49945 -0.009,3.01819 1.23053,4.18127 4.17109,4.15149 12.33191,-0.12482 24.66528,-0.25421 36.99676,-0.17298 3.48639,0.023 4.87726,-2.13336 6.50525,-4.54071 10.07153,-14.8927 28.33734,-20.01709 44.01654,-12.43335 12.47772,6.03522 20.69904,20.45923 19.10565,33.52008 -1.77893,14.58155 -12.28155,26.68006 -25.86487,29.79517 -15.1596,3.47662 -29.26379,-1.87341 -37.07427,-15.0296 -2.83179,-4.77014 -5.90039,-6.16516 -11.13575,-5.95917 -10.48413,0.41254 -20.99719,0.2666 -31.49395,0.0903 -3.8722,-0.0649 -5.375,1.21161 -5.25904,5.17798 0.224,7.6601 0.21979,15.33569 0.004,22.99622 -0.10529,3.73736 0.88971,5.12085 4.96283,5.41363 27.13733,1.95081 46.56628,15.51654 58.19873,40.0141 4.13586,8.70978 5.39349,18.17121 4.81012,27.77185 -0.24548,4.0409 1.25305,5.20734 5.14404,5.12372 9.82862,-0.2113 19.66614,-0.15112 29.49774,-0.0219 4.98182,0.0654 9.18592,2.02673 11.41834,6.7232 2.15271,4.52906 1.69086,9.03467 -1.06201,13.29096 -2.23737,3.45923 -5.59095,4.54089 -9.44611,4.56103 -9.49975,0.0498 -18.99963,0.0904 -28.49951,0.0902 -112.83289,-0.003 -225.66574,-0.0129 -338.4986,-0.0225 -1.49997,-1.2e-4 -3.00027,0.002 -4.49984,-0.0274 -7.61026,-0.14789 -12.32599,-4.63965 -12.52594,-11.91852 -0.18689,-6.80176 4.94461,-12.43188 12.13022,-12.63434 9.65945,-0.27215 19.33117,-0.1048 28.99764,-0.13391 6.56812,-0.0198 7.16471,-0.2124 6.63736,-6.72693 -2.50442,-30.93707 23.09055,-57.96826 48.61197,-64.04809 4.35047,-1.03638 8.84446,-1.61457 13.30698,-1.98615 3.06436,-0.25519 4.55261,-1.27624 4.51215,-4.50854 -0.10434,-8.33173 -0.0995,-16.66584 -0.033,-24.99823 0.0237,-2.96704 -1.18772,-4.14344 -4.18604,-4.1153 -12.16568,0.11432 -24.33347,0.16687 -36.49869,0.0522 -3.31582,-0.0312 -4.51907,1.98236 -5.97259,4.35394 -7.65979,12.49792 -18.94898,18.78296 -33.522,17.39508 -14.00373,-1.33368 -24.18033,-9.19714 -28.54212,-22.52344 -8.19531,-25.03857 11.55499,-44.84423 30.8374,-44.99597 13.57175,-0.10675 23.79474,5.21997 31.12561,16.40821 1.55487,2.37298 3.16046,3.9768 6.33048,3.94451 11.83136,-0.12066 23.66568,-0.0665 35.49756,0.0538 3.54654,0.036 5.1004,-1.22632 5.07608,-4.95685 -0.1489,-22.83228 -0.14984,-45.66541 -0.21323,-68.49826 -0.004,-1.32236 0.049,-2.68701 -1.27679,-4.01868 m 26.67877,-23.99478 c 3e-5,51.48047 0.0548,102.96112 -0.0936,154.44116 -0.0133,4.61377 1.36838,6.06995 5.9418,5.96552 11.48944,-0.26245 22.99079,-0.19312 34.48362,-0.0156 3.90475,0.0604 5.31076,-1.3277 5.21838,-5.23169 -0.2088,-8.82513 -0.22257,-17.66076 -0.0493,-26.48687 0.11463,-5.84235 2.12131,-10.88672 8.08255,-13.17145 8.71643,-3.34064 17.08441,2.70459 17.36066,12.70666 0.24829,8.98987 0.24329,17.99646 -0.006,26.9859 -0.11181,4.03583 1.39478,5.20362 5.22559,5.14563 11.49194,-0.17376 22.99243,-0.25586 34.48059,0.0111 4.78259,0.11115 5.823,-1.80987 5.81653,-6.20453 -0.10633,-71.97235 -0.1322,-143.94507 0.0541,-215.91711 0.0132,-5.11572 -1.9646,-7.1254 -6.44916,-8.22379 -10.03705,-2.45834 -20.17676,-4.21881 -30.42938,-5.49292 -8.65613,-1.07571 -8.65699,-1.24856 -8.65668,7.51984 0.002,51.81345 0.0165,103.62692 0.0212,155.44034 1.8e-4,1.83154 0.10284,3.68292 -0.11908,5.49109 -0.85767,6.98889 -6.32166,11.80462 -13.25174,11.81097 -6.18808,0.006 -10.92533,-4.3349 -11.96381,-11.20581 -0.34601,-2.28925 -0.29004,-4.65088 -0.28876,-6.97937 0.0281,-51.48004 0.0809,-102.96008 0.10981,-154.44012 0.004,-7.33899 -1.34479,-8.91642 -7.76953,-8.1771 -10.57123,1.21646 -21.08402,2.7562 -31.43985,5.42319 -4.68869,1.20749 -6.44541,3.10846 -6.37574,8.1301 0.28425,20.48809 0.10547,40.98263 0.0975,62.47482 M 145.63384,124.60972 c -20.07437,12.71251 -41.3038,14.85756 -63.56909,6.78353 -2.79071,-1.01199 -4.69272,-1.30341 -6.83621,1.45346 -19.87354,25.56036 -34.28748,53.87814 -43.26316,84.96027 -0.60928,2.10995 -1.97708,4.29199 -0.91009,6.70059 1.8746,0.63101 3.32321,-0.42673 4.78943,-1.0466 23.55523,-9.95874 48.13525,-16.39279 73.0668,-21.79544 29.96576,-6.49353 60.32889,-10.12769 90.7673,-13.19754 20.70761,-2.08851 41.51962,-2.77457 62.32984,-3.06922 3.61724,-0.0512 5.09762,-1.29117 5.01419,-4.98675 -0.17301,-7.66153 -0.22452,-15.33438 0.005,-22.99268 0.1084,-3.61993 -1.05597,-5.4108 -4.6843,-6.23538 -8.56201,-1.94583 -16.20974,-5.87665 -23.18509,-11.25552 -28.87695,-22.26775 -30.72326,-63.486034 -3.98358,-88.265234 7.76239,-7.19329 16.6771,-12.01325 26.88837,-14.66756 4.50629,-1.17137 5.9054,-4.10995 4.73144,-9.26442 -0.99911,-4.3869 -4.31725,-2.6142 -6.85653,-2.24889 -7.23972,1.04155 -14.47547,2.15001 -21.66715,3.47912 -21.22961,3.92352 -41.61184,10.43495 -60.9505,20.13482 -3.54974,1.7805 -5.24685,3.60539 -4.07409,8.11604 2.15072,8.27208 2.31698,16.87771 0.78198,25.2793 -3.2547,17.814214 -13.26624,31.311954 -28.39441,42.118104 m 155.3204,25.42513 c -9.08868,2.89194 -8.44317,0.69208 -8.45062,11.40515 -0.004,6.32993 0.1944,12.66458 0.003,18.98807 -0.10944,3.62158 1.07751,4.97528 4.83709,5.00491 13.6482,0.10743 27.27192,0.90897 40.90088,1.71301 28.40613,1.67573 56.68085,4.60853 84.72089,9.30942 34.82263,5.83795 69.32074,13.13492 101.83673,27.62021 1.0683,0.47592 2.3122,1.55707 3.81793,0.22043 -0.2254,-1.3877 -0.33862,-2.87857 -0.71722,-4.29871 -8.53076,-31.99929 -23.44483,-60.7529 -43.92133,-86.72247 -2.34613,-2.97552 -4.51928,-2.91693 -7.70672,-1.78342 -20.95288,7.45133 -41.36261,6.41913 -60.4455,-5.45291 -24.96582,-15.53195 -35.58795,-39.568364 -31.16876,-66.687314 1.39306,-8.54894 1.75391,-8.49387 -6.19641,-12.33771 -0.89856,-0.43445 -1.8357,-0.78845 -2.74365,-1.20436 -24.13404,-11.05498 -49.5066,-17.41284 -75.8479,-20.25655 -6.94227,-0.74948 -7.5113,-0.44046 -7.29999,6.45641 0.0762,2.48428 0.61462,4.04353 3.42541,4.51542 2.43628,0.40903 4.7854,1.3935 7.14173,2.21376 27.72137,9.65038 44.93786,39.26322 38.21112,67.601434 -5.08643,21.42813 -18.93274,35.82162 -40.39698,43.69522 m -79.43451,424.05936 c 0.005,1.33288 0.18372,2.69226 -0.0152,3.99395 -0.80021,5.23536 1.59536,6.35852 6.49966,6.33069 34.65268,-0.19671 69.30728,-0.17724 103.96042,-0.0221 4.54694,0.0203 6.17242,-1.28443 6.05963,-5.95246 -0.27771,-11.48907 -0.0823,-22.98944 -0.0939,-34.48523 -0.007,-7.29321 -0.74408,-7.93511 -7.87165,-7.86456 -19.2904,0.19098 -38.58135,0.3891 -57.87243,0.42749 -14.82352,0.0295 -29.64874,-0.10119 -44.47064,-0.32843 -4.63864,-0.071 -6.44101,1.55561 -6.28077,6.42896 0.33384,10.15173 0.0901,20.32245 0.0849,31.47168 m 94.47278,-473.27266 c 0.73548,-3.430834 1.22541,-6.847124 0.62079,-10.388834 -3.97327,-23.27638 -27.57788,-37.10598 -49.85605,-29.16406 -17.04428,6.07611 -27.38009,23.45189 -23.59912,39.673034 3.77689,16.20363 17.80625,27.02312 35.83206,27.63378 17.43921,0.59076 31.78711,-9.88515 37.00232,-27.75392 m 46.60431,461.32283 c 0.007,5.99804 0.0602,11.99658 -0.003,17.99389 -0.0264,2.50403 0.49237,4.19397 3.52039,4.17896 11.99566,-0.0594 23.99194,-0.0362 35.98785,-0.008 2.43018,0.006 3.52075,-1.02435 3.83191,-3.51776 2.65198,-21.25165 -17.69226,-44.25079 -39.04101,-44.1759 -3.35737,0.0118 -4.35114,1.45093 -4.30475,4.53589 0.10016,6.66284 0.0162,13.32843 0.009,20.99292 m -206.13705,22.013 c 11.65393,0.052 23.30975,0.002 34.96075,0.2149 3.77182,0.069 4.9133,-1.42914 4.87384,-5.01953 -0.13727,-12.48681 -0.16208,-24.97748 0.003,-37.46356 0.0567,-4.28467 -1.66822,-5.66864 -5.72422,-5.07196 -15.33746,2.25635 -26.52701,10.25714 -32.9772,24.34137 -3.29312,7.19055 -4.41202,14.84942 -1.13635,22.99878 M 493.0884,286.05807 c -30.35297,3.75507 -60.70972,7.47852 -91.14435,10.65329 16.04248,1.36258 32.07398,2.42942 48.09595,3.62418 14.25159,1.06274 28.5285,1.94781 42.72381,3.53928 7.49128,0.8399 14.11145,0.59857 19.79193,-5.12433 4.94794,-4.9849 10.60071,-9.31766 14.44184,-16.50672 -11.60755,1.32148 -22.3064,2.53949 -33.90918,3.8143 M 95.64516,301.32544 c 18.96613,-1.40872 37.93228,-2.81742 56.89841,-4.22611 -19.87253,-3.05459 -39.67746,-5.31463 -59.47763,-7.61551 -19.89054,-2.3114 -39.77631,-4.66345 -60.66571,-7.11526 6.31793,9.78354 14.12741,16.31522 23.15881,21.45529 1.30246,0.74124 3.26099,0.59631 4.88391,0.46512 11.42896,-0.92358 22.84955,-1.95099 35.20221,-2.96353 m 240.27765,-50.58252 c -1.08356,1.60437 -2.80872,2.87338 -2.74054,5.21716 5.10352,2.85047 9.68543,2.65839 14.71784,-0.80047 16.44189,-11.30091 33.21978,-22.10218 50.36236,-32.3256 2.04395,-1.21896 3.91681,-2.72479 6.85993,-4.79458 -12.67023,-2.08957 -24.0561,-3.06427 -35.42792,-4.20459 -3.78864,-0.37992 -6.18854,1.00149 -8.40766,3.94308 -8.2077,10.88004 -16.60577,21.61658 -25.36401,32.965 M 198.14455,218.28381 c -2.30694,-3.72665 -5.2539,-5.45312 -9.953,-4.53982 -4.70053,0.9136 -9.62491,0.63089 -14.3617,1.41382 -6.07367,1.00384 -12.37216,0.9461 -19.06961,3.20239 1.7695,1.27963 2.76075,2.11801 3.86081,2.77389 18.2891,10.90363 36.21643,22.38105 53.57532,34.70179 4.78107,3.39343 8.76297,2.8125 13.81668,-0.24924 -8.39487,-12.99881 -18.43375,-24.49811 -27.8685,-37.30283 m 272.54468,48.04627 c 21.09466,-2.73636 42.18933,-5.47275 63.284,-8.20914 -7.82874,-6.48941 -16.31012,-10.54068 -25.16803,-13.93362 -2.19489,-0.84073 -3.97156,-0.84147 -6.16962,-0.11698 -15.33069,5.0531 -30.71716,9.93674 -46.07575,14.90567 -14.10125,4.5622 -28.18988,9.16321 -42.28411,13.74713 0.0599,0.20594 0.11981,0.4119 0.17974,0.61783 18.44684,-2.32181 36.89374,-4.64358 56.23377,-7.01089 M 229.75844,219.68414 c 6.40705,8.51428 13.1279,16.81571 19.10175,25.62375 3.50119,5.16235 7.27469,6.8223 13.36581,5.49536 3.79813,-0.82733 4.91083,-2.26925 4.84375,-5.89447 -0.18475,-9.99042 -0.25708,-19.98935 -0.0416,-29.97775 0.0922,-4.27225 -1.67078,-5.487 -5.6203,-5.37924 -10.48835,0.28613 -20.98343,0.31607 -31.47476,0.50735 -1.92911,0.0352 -3.96869,-0.0298 -5.57871,1.59897 0.96896,3.0202 3.31915,5.01276 5.40402,8.02603 m 62.82678,27.85633 c 2.45166,4.41207 12.02033,5.3226 15.09833,1.2236 8.17578,-10.88776 16.19733,-21.89163 24.23017,-32.88581 0.84057,-1.15054 1.88873,-2.39108 1.16241,-4.20974 -2.45825,-1.44309 -5.27539,-1.56183 -8.07483,-1.62152 -8.6344,-0.18406 -17.26965,-0.33689 -25.90533,-0.44727 -5.74427,-0.0735 -6.49774,0.6611 -6.53156,6.6644 -0.0571,10.13132 -0.0117,20.26321 0.0208,31.27634 M 77.44806,264.63226 c 20.07059,2.58716 40.14117,5.17432 60.21176,7.76148 -21.905,-8.40131 -43.99783,-15.64087 -66.09445,-22.86896 -21.43875,-7.01288 -21.45401,-7.03235 -41.33655,3.88577 -1.76434,0.96887 -4.22128,1.32355 -4.94592,4.55069 17.18362,2.18793 34.23047,4.35846 52.16516,6.67102 M 409.30245,72.143826 c 0.28381,29.039504 34.74164,46.060014 55.17554,36.623374 -16.36444,-17.091254 -34.49286,-31.507544 -53.84211,-44.984124 -1.54022,3.14099 -1.22973,5.33252 -1.33343,8.36075 M 103.43303,100.31668 c -2.66348,2.87196 -5.32696,5.74393 -7.94665,8.56869 10.06937,6.09583 29.10754,2.31958 40.66278,-8.23333 11.09454,-10.132164 16.35947,-25.666894 11.6243,-35.136544 -16.06903,9.62659 -30.16089,21.6958 -44.34043,34.801184 m 41.43653,140.2894 c -4.78394,-3.00443 -9.9003,-5.59375 -14.28083,-9.10193 -8.43164,-6.75247 -17.3027,-8.0712 -27.22485,-4.0405 -3.841,1.56031 -8.29147,1.4343 -12.76974,4.27832 26.49044,8.35694 51.84314,17.27756 78.09002,23.69452 -7.72668,-4.82278 -15.4534,-9.6456 -23.8146,-14.83041 m 309.50784,-4.43326 c 4.32874,-1.68326 9.08838,-2.2482 13.828,-5.00522 -8.65472,-2.77719 -16.74707,-4.53494 -24.8518,-6.24597 -2.13715,-0.4512 -3.85016,0.50098 -5.59595,1.54553 -15.25043,9.12467 -30.52722,18.20514 -45.76032,27.35855 -0.81524,0.4899 -2.24035,0.6991 -2.06347,2.61869 21.58868,-5.86753 42.44507,-13.56272 64.44354,-20.27158 m -83.61652,96.69009 c -2.38391,-0.52896 -4.62262,-1.84249 -7.8189,-1.36743 -0.4928,5.39618 -0.6103,10.77057 0.31762,16.17438 0.42731,2.48853 1.97736,2.59964 4.06061,2.31241 7.24353,-0.99857 14.54877,-1.61493 21.74603,-2.86353 5.82544,-1.01062 11.91944,-0.94867 18.31275,-3.53537 -12.55512,-3.7088 -24.18915,-7.14553 -36.61811,-10.72046 m -176.93762,-1.78726 c -13.96164,4.05136 -27.92325,8.10273 -41.88488,12.15412 13.49545,3.48352 26.99508,4.88693 40.48702,6.33175 1.33667,0.14313 3.18616,-0.0313 3.26261,-1.56769 0.28015,-5.62979 2.02188,-11.40487 -1.86475,-16.91818 m 251.67328,142.4408 c 3.92786,-4.69068 4.53693,-8.70301 1.90186,-12.52899 -2.51648,-3.65381 -7.85828,-5.31458 -11.95679,-3.71735 -3.92944,1.53137 -6.43372,6.08539 -5.78442,10.51874 0.96771,6.60699 7.88159,9.41711 15.83935,5.7276 M 129.428,466.29227 c -0.33417,-1.27869 -0.44626,-2.67322 -1.04242,-3.81513 -2.12564,-4.07141 -5.52399,-6.07532 -10.17746,-5.58648 -4.59216,0.48242 -7.04709,3.41723 -8.09577,7.61291 -1.09866,4.39551 1.32889,7.30896 4.67573,9.53882 5.83148,3.88531 12.07513,0.84125 14.63992,-7.75012 M 420.50326,320.02414 c -4.2873,-0.32056 -8.57459,-0.64112 -12.86188,-0.96167 12.80542,3.68582 25.79748,6.55408 38.39343,10.64267 8.61029,2.79486 14.79095,-1.61801 21.79962,-4.03391 -0.0286,-0.42401 -0.0572,-0.84805 -0.0858,-1.27206 -15.44257,-1.44342 -30.8852,-2.88684 -47.24536,-4.37503 M 114.689,329.336 c 12.16424,-3.29715 24.32849,-6.5943 36.49273,-9.89145 -20.59003,2.29669 -41.30496,2.97803 -63.30328,5.01382 4.63266,1.5929 7.91339,2.75479 11.21661,3.84867 4.83853,1.60223 9.61658,4.05075 15.59394,1.02896 z"
   id="path1" />















<path
   fill="#000000"
   opacity="1"
   stroke="none"
   d="m 511.46877,597.53036 c -1.71637,7.85236 -5.59289,11.59363 -12.20398,12.17517 -5.09198,0.448 -9.98383,-2.47955 -12.01886,-7.19262 -2.89593,-6.70697 0.22681,-14.26837 6.95105,-16.8313 7.13233,-2.71845 14.44293,0.7738 16.69196,8.02441 0.33923,1.09375 0.40344,2.27289 0.57983,3.82434 z"
   id="path17" />
<path
   fill="#000000"
   opacity="1"
   stroke="none"
   d="m 69.1147,606.60934 c -7.02746,4.18427 -13.84555,3.4317 -17.73852,-1.68103 -3.84049,-5.04376 -3.2374,-12.67651 1.32925,-16.82361 4.93409,-4.48065 13.07553,-4.24005 17.62543,0.52106 4.81717,5.04077 4.4592,11.92481 -1.21616,17.98358 z"
   id="path18" />

</svg>
